<svg width="100" height="25" viewBox="0 0 100 25" fill="none" xmlns="http://www.w3.org/2000/svg">
<rect width="4" height="25" rx="2" fill="#367FEC"/>
<path d="M17.148 17V7.13H23.56V8.292H18.562V11.4H23.28V12.576H18.562V15.838H23.56V17H17.148ZM25.7575 7.13H29.2155C30.8115 7.13 32.0481 7.55933 32.9255 8.418C33.8028 9.27667 34.2415 10.49 34.2415 12.058C34.2415 13.626 33.8028 14.844 32.9255 15.712C32.0481 16.5707 30.8115 17 29.2155 17H25.7575V7.13ZM29.1315 15.796C31.5581 15.796 32.7715 14.55 32.7715 12.058C32.7715 9.57533 31.5581 8.334 29.1315 8.334H27.1995V15.796H29.1315ZM40.5708 17.112C39.2548 17.112 38.2561 16.7713 37.5748 16.09C36.8934 15.4087 36.5528 14.4053 36.5528 13.08V7.13H37.9808V13.178C37.9808 14.0833 38.1954 14.7693 38.6248 15.236C39.0634 15.7027 39.7121 15.936 40.5708 15.936C41.4201 15.936 42.0641 15.7027 42.5028 15.236C42.9414 14.7693 43.1608 14.0833 43.1608 13.178V7.13H44.5888V13.08C44.5888 14.396 44.2434 15.3993 43.5528 16.09C42.8714 16.7713 41.8774 17.112 40.5708 17.112ZM51.5683 17.112C50.6163 17.112 49.7856 16.9067 49.0763 16.496C48.3763 16.0853 47.835 15.502 47.4523 14.746C47.079 13.9807 46.8923 13.0847 46.8923 12.058C46.8923 11.0313 47.079 10.14 47.4523 9.384C47.835 8.61867 48.3763 8.03533 49.0763 7.634C49.7856 7.22333 50.6163 7.018 51.5683 7.018C52.2403 7.018 52.8656 7.12533 53.4443 7.34C54.023 7.54533 54.513 7.844 54.9143 8.236L54.4103 9.3C53.953 8.91733 53.4956 8.642 53.0383 8.474C52.5903 8.306 52.105 8.222 51.5823 8.222C50.5556 8.222 49.7623 8.55333 49.2023 9.216C48.6516 9.87867 48.3763 10.826 48.3763 12.058C48.3763 13.29 48.6516 14.242 49.2023 14.914C49.7623 15.5767 50.5556 15.908 51.5823 15.908C52.105 15.908 52.5903 15.824 53.0383 15.656C53.4956 15.488 53.953 15.2127 54.4103 14.83L54.9143 15.894C54.513 16.286 54.023 16.5893 53.4443 16.804C52.8656 17.0093 52.2403 17.112 51.5683 17.112ZM64.4638 17L63.4138 14.564H58.4158L57.3658 17H55.9098L60.3058 7.13H61.5098L65.9058 17H64.4638ZM58.9058 13.416H62.9238L60.9218 8.74L58.9058 13.416ZM68.7816 17V8.334H65.4496V7.13H73.5836V8.334H70.2376V17H68.7816ZM75.3262 17V7.13H76.7682V17H75.3262ZM83.7206 17.112C82.7873 17.112 81.9753 16.9067 81.2846 16.496C80.6033 16.0853 80.076 15.502 79.7026 14.746C79.3293 13.99 79.1426 13.0987 79.1426 12.072C79.1426 11.036 79.3246 10.14 79.6886 9.384C80.062 8.61867 80.594 8.03533 81.2846 7.634C81.9753 7.22333 82.7873 7.018 83.7206 7.018C84.6633 7.018 85.48 7.22333 86.1706 7.634C86.8613 8.03533 87.3886 8.61867 87.7526 9.384C88.126 10.14 88.3126 11.0313 88.3126 12.058C88.3126 13.0847 88.126 13.9807 87.7526 14.746C87.3886 15.502 86.8613 16.0853 86.1706 16.496C85.48 16.9067 84.6633 17.112 83.7206 17.112ZM83.7206 15.936C84.71 15.936 85.48 15.6 86.0306 14.928C86.5813 14.256 86.8566 13.2993 86.8566 12.058C86.8566 10.8167 86.5813 9.86467 86.0306 9.202C85.4893 8.53 84.7193 8.194 83.7206 8.194C82.7406 8.194 81.9753 8.53 81.4246 9.202C80.8833 9.86467 80.6126 10.8167 80.6126 12.058C80.6126 13.2993 80.8833 14.256 81.4246 14.928C81.9753 15.6 82.7406 15.936 83.7206 15.936ZM97.4474 7.13H98.8054V17H97.6994L92.0574 9.552V17H90.6994V7.13H91.7914L97.4474 14.592V7.13Z" fill="#00050B"/>
</svg>
