<svg width="75" height="25" viewBox="0 0 75 25" fill="none" xmlns="http://www.w3.org/2000/svg">
<rect width="4" height="25" rx="2" fill="#367FEC"/>
<path d="M26.936 7.54H28.16V16H26.936V12.208H22.208V16H20.984V7.54H22.208V11.2H26.936V7.54ZM34.1206 16.096C33.3206 16.096 32.6246 15.92 32.0326 15.568C31.4486 15.216 30.9966 14.716 30.6766 14.068C30.3566 13.42 30.1966 12.656 30.1966 11.776C30.1966 10.888 30.3526 10.12 30.6646 9.472C30.9846 8.816 31.4406 8.316 32.0326 7.972C32.6246 7.62 33.3206 7.444 34.1206 7.444C34.9286 7.444 35.6286 7.62 36.2206 7.972C36.8126 8.316 37.2646 8.816 37.5766 9.472C37.8966 10.12 38.0566 10.884 38.0566 11.764C38.0566 12.644 37.8966 13.412 37.5766 14.068C37.2646 14.716 36.8126 15.216 36.2206 15.568C35.6286 15.92 34.9286 16.096 34.1206 16.096ZM34.1206 15.088C34.9686 15.088 35.6286 14.8 36.1006 14.224C36.5726 13.648 36.8086 12.828 36.8086 11.764C36.8086 10.7 36.5726 9.884 36.1006 9.316C35.6366 8.74 34.9766 8.452 34.1206 8.452C33.2806 8.452 32.6246 8.74 32.1526 9.316C31.6886 9.884 31.4566 10.7 31.4566 11.764C31.4566 12.828 31.6886 13.648 32.1526 14.224C32.6246 14.8 33.2806 15.088 34.1206 15.088ZM45.0824 11.644C45.5704 11.78 45.9464 12.024 46.2104 12.376C46.4824 12.728 46.6184 13.168 46.6184 13.696C46.6184 14.424 46.3664 14.992 45.8624 15.4C45.3664 15.8 44.6704 16 43.7744 16H40.1024V7.54H43.6424C44.5144 7.54 45.1944 7.736 45.6824 8.128C46.1784 8.512 46.4264 9.052 46.4264 9.748C46.4264 10.196 46.3064 10.584 46.0664 10.912C45.8344 11.24 45.5064 11.484 45.0824 11.644ZM41.3144 11.2H43.4504C44.6344 11.2 45.2264 10.752 45.2264 9.856C45.2264 9.408 45.0784 9.076 44.7824 8.86C44.4944 8.644 44.0504 8.536 43.4504 8.536H41.3144V11.2ZM43.6424 15.004C44.2584 15.004 44.7104 14.892 44.9984 14.668C45.2864 14.444 45.4304 14.096 45.4304 13.624C45.4304 13.144 45.2824 12.788 44.9864 12.556C44.6984 12.316 44.2504 12.196 43.6424 12.196H41.3144V15.004H43.6424ZM53.5753 11.644C54.0633 11.78 54.4393 12.024 54.7033 12.376C54.9753 12.728 55.1112 13.168 55.1112 13.696C55.1112 14.424 54.8593 14.992 54.3553 15.4C53.8593 15.8 53.1632 16 52.2673 16H48.5952V7.54H52.1352C53.0073 7.54 53.6873 7.736 54.1753 8.128C54.6713 8.512 54.9193 9.052 54.9193 9.748C54.9193 10.196 54.7993 10.584 54.5593 10.912C54.3273 11.24 53.9993 11.484 53.5753 11.644ZM49.8073 11.2H51.9433C53.1273 11.2 53.7192 10.752 53.7192 9.856C53.7192 9.408 53.5713 9.076 53.2753 8.86C52.9873 8.644 52.5433 8.536 51.9433 8.536H49.8073V11.2ZM52.1352 15.004C52.7513 15.004 53.2033 14.892 53.4913 14.668C53.7793 14.444 53.9233 14.096 53.9233 13.624C53.9233 13.144 53.7753 12.788 53.4793 12.556C53.1913 12.316 52.7433 12.196 52.1352 12.196H49.8073V15.004H52.1352ZM57.0881 16V7.54H58.3241V16H57.0881ZM60.6473 16V7.54H66.1433V8.536H61.8593V11.2H65.9033V12.208H61.8593V15.004H66.1433V16H60.6473ZM70.6816 16.096C70.0256 16.096 69.4216 16.008 68.8696 15.832C68.3256 15.656 67.8576 15.396 67.4656 15.052L67.9096 14.14C68.3256 14.476 68.7536 14.72 69.1936 14.872C69.6416 15.016 70.1416 15.088 70.6936 15.088C71.3256 15.088 71.8136 14.972 72.1576 14.74C72.5016 14.5 72.6736 14.164 72.6736 13.732C72.6736 13.364 72.5136 13.092 72.1936 12.916C71.8736 12.732 71.3616 12.56 70.6576 12.4C69.9856 12.256 69.4336 12.092 69.0016 11.908C68.5696 11.724 68.2296 11.476 67.9816 11.164C67.7416 10.844 67.6216 10.44 67.6216 9.952C67.6216 9.456 67.7496 9.02 68.0056 8.644C68.2696 8.268 68.6416 7.976 69.1216 7.768C69.6016 7.552 70.1576 7.444 70.7896 7.444C71.3816 7.444 71.9376 7.536 72.4576 7.72C72.9856 7.896 73.4176 8.152 73.7536 8.488L73.3216 9.4C72.9296 9.08 72.5256 8.844 72.1096 8.692C71.7016 8.532 71.2656 8.452 70.8016 8.452C70.1936 8.452 69.7136 8.58 69.3616 8.836C69.0176 9.084 68.8456 9.432 68.8456 9.88C68.8456 10.264 68.9976 10.556 69.3016 10.756C69.6056 10.948 70.0936 11.124 70.7656 11.284C71.4696 11.444 72.0376 11.612 72.4696 11.788C72.9096 11.956 73.2576 12.192 73.5136 12.496C73.7776 12.792 73.9096 13.18 73.9096 13.66C73.9096 14.148 73.7776 14.576 73.5136 14.944C73.2576 15.312 72.8856 15.596 72.3976 15.796C71.9176 15.996 71.3456 16.096 70.6816 16.096Z" fill="#00050B"/>
</svg>
