<svg width="80" height="25" viewBox="0 0 80 25" fill="none" xmlns="http://www.w3.org/2000/svg">
<rect width="4" height="25" rx="2" fill="#367FEC"/>
<path d="M24.092 7.13H25.52V17H24.092V12.576H18.576V17H17.148V7.13H18.576V11.4H24.092V7.13ZM32.4741 17.112C31.5407 17.112 30.7287 16.9067 30.0381 16.496C29.3567 16.0853 28.8294 15.502 28.4561 14.746C28.0827 13.99 27.8961 13.0987 27.8961 12.072C27.8961 11.036 28.0781 10.14 28.4421 9.384C28.8154 8.61867 29.3474 8.03533 30.0381 7.634C30.7287 7.22333 31.5407 7.018 32.4741 7.018C33.4167 7.018 34.2334 7.22333 34.9241 7.634C35.6147 8.03533 36.1421 8.61867 36.5061 9.384C36.8794 10.14 37.0661 11.0313 37.0661 12.058C37.0661 13.0847 36.8794 13.9807 36.5061 14.746C36.1421 15.502 35.6147 16.0853 34.9241 16.496C34.2334 16.9067 33.4167 17.112 32.4741 17.112ZM32.4741 15.936C33.4634 15.936 34.2334 15.6 34.7841 14.928C35.3347 14.256 35.6101 13.2993 35.6101 12.058C35.6101 10.8167 35.3347 9.86467 34.7841 9.202C34.2427 8.53 33.4727 8.194 32.4741 8.194C31.4941 8.194 30.7287 8.53 30.1781 9.202C29.6367 9.86467 29.3661 10.8167 29.3661 12.058C29.3661 13.2993 29.6367 14.256 30.1781 14.928C30.7287 15.6 31.4941 15.936 32.4741 15.936ZM45.2628 11.918C45.8322 12.0767 46.2708 12.3613 46.5788 12.772C46.8962 13.1827 47.0548 13.696 47.0548 14.312C47.0548 15.1613 46.7608 15.824 46.1728 16.3C45.5942 16.7667 44.7822 17 43.7368 17H39.4528V7.13H43.5828C44.6002 7.13 45.3935 7.35867 45.9628 7.816C46.5415 8.264 46.8308 8.894 46.8308 9.706C46.8308 10.2287 46.6908 10.6813 46.4108 11.064C46.1402 11.4467 45.7575 11.7313 45.2628 11.918ZM40.8668 11.4H43.3588C44.7402 11.4 45.4308 10.8773 45.4308 9.832C45.4308 9.30933 45.2582 8.922 44.9128 8.67C44.5768 8.418 44.0588 8.292 43.3588 8.292H40.8668V11.4ZM43.5828 15.838C44.3015 15.838 44.8288 15.7073 45.1648 15.446C45.5008 15.1847 45.6688 14.7787 45.6688 14.228C45.6688 13.668 45.4962 13.2527 45.1508 12.982C44.8148 12.702 44.2922 12.562 43.5828 12.562H40.8668V15.838H43.5828ZM55.1711 11.918C55.7405 12.0767 56.1791 12.3613 56.4871 12.772C56.8045 13.1827 56.9631 13.696 56.9631 14.312C56.9631 15.1613 56.6691 15.824 56.0811 16.3C55.5025 16.7667 54.6905 17 53.6451 17H49.3611V7.13H53.4911C54.5085 7.13 55.3018 7.35867 55.8711 7.816C56.4498 8.264 56.7391 8.894 56.7391 9.706C56.7391 10.2287 56.5991 10.6813 56.3191 11.064C56.0485 11.4467 55.6658 11.7313 55.1711 11.918ZM50.7751 11.4H53.2671C54.6485 11.4 55.3391 10.8773 55.3391 9.832C55.3391 9.30933 55.1665 8.922 54.8211 8.67C54.4851 8.418 53.9671 8.292 53.2671 8.292H50.7751V11.4ZM53.4911 15.838C54.2098 15.838 54.7371 15.7073 55.0731 15.446C55.4091 15.1847 55.5771 14.7787 55.5771 14.228C55.5771 13.668 55.4045 13.2527 55.0591 12.982C54.7231 12.702 54.2005 12.562 53.4911 12.562H50.7751V15.838H53.4911ZM59.2694 17V7.13H60.7114V17H59.2694ZM63.4218 17V7.13H69.8338V8.292H64.8358V11.4H69.5538V12.576H64.8358V15.838H69.8338V17H63.4218ZM75.1286 17.112C74.3632 17.112 73.6586 17.0093 73.0146 16.804C72.3799 16.5987 71.8339 16.2953 71.3766 15.894L71.8946 14.83C72.3799 15.222 72.8792 15.5067 73.3926 15.684C73.9152 15.852 74.4986 15.936 75.1426 15.936C75.8799 15.936 76.4492 15.8007 76.8506 15.53C77.2519 15.25 77.4526 14.858 77.4526 14.354C77.4526 13.9247 77.2659 13.6073 76.8926 13.402C76.5192 13.1873 75.9219 12.9867 75.1006 12.8C74.3166 12.632 73.6726 12.4407 73.1686 12.226C72.6646 12.0113 72.2679 11.722 71.9786 11.358C71.6986 10.9847 71.5586 10.5133 71.5586 9.944C71.5586 9.36533 71.7079 8.85667 72.0066 8.418C72.3146 7.97933 72.7486 7.63867 73.3086 7.396C73.8686 7.144 74.5172 7.018 75.2546 7.018C75.9452 7.018 76.5939 7.12533 77.2006 7.34C77.8166 7.54533 78.3206 7.844 78.7126 8.236L78.2086 9.3C77.7512 8.92667 77.2799 8.65133 76.7946 8.474C76.3186 8.28733 75.8099 8.194 75.2686 8.194C74.5592 8.194 73.9992 8.34333 73.5886 8.642C73.1872 8.93133 72.9866 9.33733 72.9866 9.86C72.9866 10.308 73.1639 10.6487 73.5186 10.882C73.8732 11.106 74.4426 11.3113 75.2266 11.498C76.0479 11.6847 76.7106 11.8807 77.2146 12.086C77.7279 12.282 78.1339 12.5573 78.4326 12.912C78.7406 13.2573 78.8946 13.71 78.8946 14.27C78.8946 14.8393 78.7406 15.3387 78.4326 15.768C78.1339 16.1973 77.6999 16.5287 77.1306 16.762C76.5706 16.9953 75.9032 17.112 75.1286 17.112Z" fill="#00050B"/>
</svg>
