<svg width="94" height="25" viewBox="0 0 94 25" fill="none" xmlns="http://www.w3.org/2000/svg">
<rect width="4" height="25" rx="2" fill="#367FEC"/>
<path d="M17.148 17V7.13H18.59V17H17.148ZM28.0484 7.13H29.4064V17H28.3004L22.6584 9.552V17H21.3004V7.13H22.3924L28.0484 14.592V7.13ZM34.4767 17V8.334H31.1447V7.13H39.2787V8.334H35.9327V17H34.4767ZM41.0213 17V7.13H47.4333V8.292H42.4353V11.4H47.1533V12.576H42.4353V15.838H47.4333V17H41.0213ZM57.6387 17H56.0427L54.3627 13.836C54.1761 13.5 53.9521 13.2667 53.6907 13.136C53.4387 12.996 53.1027 12.926 52.6827 12.926H51.0587V17H49.6307V7.13H53.8307C54.9227 7.13 55.7534 7.37267 56.3227 7.858C56.9014 8.34333 57.1907 9.05267 57.1907 9.986C57.1907 10.742 56.9761 11.3627 56.5467 11.848C56.1267 12.3333 55.5247 12.6413 54.7407 12.772C55.2261 12.9213 55.6274 13.2853 55.9447 13.864L57.6387 17ZM53.6627 11.764C54.3907 11.764 54.9274 11.624 55.2727 11.344C55.6274 11.0547 55.8047 10.6113 55.8047 10.014C55.8047 9.41667 55.6321 8.98267 55.2867 8.712C54.9414 8.432 54.4001 8.292 53.6627 8.292H51.0447V11.764H53.6627ZM59.7167 17V7.13H66.1287V8.292H61.1307V11.4H65.8487V12.576H61.1307V15.838H66.1287V17H59.7167ZM71.4235 17.112C70.6582 17.112 69.9535 17.0093 69.3095 16.804C68.6748 16.5987 68.1288 16.2953 67.6715 15.894L68.1895 14.83C68.6748 15.222 69.1742 15.5067 69.6875 15.684C70.2102 15.852 70.7935 15.936 71.4375 15.936C72.1748 15.936 72.7442 15.8007 73.1455 15.53C73.5468 15.25 73.7475 14.858 73.7475 14.354C73.7475 13.9247 73.5608 13.6073 73.1875 13.402C72.8142 13.1873 72.2168 12.9867 71.3955 12.8C70.6115 12.632 69.9675 12.4407 69.4635 12.226C68.9595 12.0113 68.5628 11.722 68.2735 11.358C67.9935 10.9847 67.8535 10.5133 67.8535 9.944C67.8535 9.36533 68.0028 8.85667 68.3015 8.418C68.6095 7.97933 69.0435 7.63867 69.6035 7.396C70.1635 7.144 70.8122 7.018 71.5495 7.018C72.2402 7.018 72.8888 7.12533 73.4955 7.34C74.1115 7.54533 74.6155 7.844 75.0075 8.236L74.5035 9.3C74.0462 8.92667 73.5748 8.65133 73.0895 8.474C72.6135 8.28733 72.1048 8.194 71.5635 8.194C70.8542 8.194 70.2942 8.34333 69.8835 8.642C69.4822 8.93133 69.2815 9.33733 69.2815 9.86C69.2815 10.308 69.4588 10.6487 69.8135 10.882C70.1682 11.106 70.7375 11.3113 71.5215 11.498C72.3428 11.6847 73.0055 11.8807 73.5095 12.086C74.0228 12.282 74.4288 12.5573 74.7275 12.912C75.0355 13.2573 75.1895 13.71 75.1895 14.27C75.1895 14.8393 75.0355 15.3387 74.7275 15.768C74.4288 16.1973 73.9948 16.5287 73.4255 16.762C72.8655 16.9953 72.1982 17.112 71.4235 17.112ZM79.5337 17V8.334H76.2017V7.13H84.3357V8.334H80.9897V17H79.5337ZM88.9842 17.112C88.2189 17.112 87.5142 17.0093 86.8702 16.804C86.2355 16.5987 85.6895 16.2953 85.2322 15.894L85.7502 14.83C86.2355 15.222 86.7349 15.5067 87.2482 15.684C87.7709 15.852 88.3542 15.936 88.9982 15.936C89.7355 15.936 90.3049 15.8007 90.7062 15.53C91.1075 15.25 91.3082 14.858 91.3082 14.354C91.3082 13.9247 91.1215 13.6073 90.7482 13.402C90.3749 13.1873 89.7775 12.9867 88.9562 12.8C88.1722 12.632 87.5282 12.4407 87.0242 12.226C86.5202 12.0113 86.1235 11.722 85.8342 11.358C85.5542 10.9847 85.4142 10.5133 85.4142 9.944C85.4142 9.36533 85.5635 8.85667 85.8622 8.418C86.1702 7.97933 86.6042 7.63867 87.1642 7.396C87.7242 7.144 88.3729 7.018 89.1102 7.018C89.8009 7.018 90.4495 7.12533 91.0562 7.34C91.6722 7.54533 92.1762 7.844 92.5682 8.236L92.0642 9.3C91.6069 8.92667 91.1355 8.65133 90.6502 8.474C90.1742 8.28733 89.6655 8.194 89.1242 8.194C88.4149 8.194 87.8549 8.34333 87.4442 8.642C87.0429 8.93133 86.8422 9.33733 86.8422 9.86C86.8422 10.308 87.0195 10.6487 87.3742 10.882C87.7289 11.106 88.2982 11.3113 89.0822 11.498C89.9035 11.6847 90.5662 11.8807 91.0702 12.086C91.5835 12.282 91.9895 12.5573 92.2882 12.912C92.5962 13.2573 92.7502 13.71 92.7502 14.27C92.7502 14.8393 92.5962 15.3387 92.2882 15.768C91.9895 16.1973 91.5555 16.5287 90.9862 16.762C90.4262 16.9953 89.7589 17.112 88.9842 17.112Z" fill="#00050B"/>
</svg>
