<svg width="64" height="25" viewBox="0 0 64 25" fill="none" xmlns="http://www.w3.org/2000/svg">
<rect width="4" height="25" rx="2" fill="#367FEC"/>
<path d="M20.382 17.112C19.6167 17.112 18.912 17.0093 18.268 16.804C17.6333 16.5987 17.0873 16.2953 16.63 15.894L17.148 14.83C17.6333 15.222 18.1327 15.5067 18.646 15.684C19.1687 15.852 19.752 15.936 20.396 15.936C21.1333 15.936 21.7027 15.8007 22.104 15.53C22.5053 15.25 22.706 14.858 22.706 14.354C22.706 13.9247 22.5193 13.6073 22.146 13.402C21.7727 13.1873 21.1753 12.9867 20.354 12.8C19.57 12.632 18.926 12.4407 18.422 12.226C17.918 12.0113 17.5213 11.722 17.232 11.358C16.952 10.9847 16.812 10.5133 16.812 9.944C16.812 9.36533 16.9613 8.85667 17.26 8.418C17.568 7.97933 18.002 7.63867 18.562 7.396C19.122 7.144 19.7707 7.018 20.508 7.018C21.1987 7.018 21.8473 7.12533 22.454 7.34C23.07 7.54533 23.574 7.844 23.966 8.236L23.462 9.3C23.0047 8.92667 22.5333 8.65133 22.048 8.474C21.572 8.28733 21.0633 8.194 20.522 8.194C19.8127 8.194 19.2527 8.34333 18.842 8.642C18.4407 8.93133 18.24 9.33733 18.24 9.86C18.24 10.308 18.4173 10.6487 18.772 10.882C19.1267 11.106 19.696 11.3113 20.48 11.498C21.3013 11.6847 21.964 11.8807 22.468 12.086C22.9813 12.282 23.3873 12.5573 23.686 12.912C23.994 13.2573 24.148 13.71 24.148 14.27C24.148 14.8393 23.994 15.3387 23.686 15.768C23.3873 16.1973 22.9533 16.5287 22.384 16.762C21.824 16.9953 21.1567 17.112 20.382 17.112ZM34.4513 17H32.6453L27.7873 12.352V17H26.3453V7.13H27.7873V11.624L32.4353 7.13H34.2133L29.2293 11.904L34.4513 17ZM35.7478 17V7.13H37.1898V17H35.7478ZM39.9002 17V7.13H41.3422V15.796H46.1302V17H39.9002ZM47.9764 17V7.13H49.4184V15.796H54.2064V17H47.9764ZM59.0816 17.112C58.3163 17.112 57.6116 17.0093 56.9676 16.804C56.3329 16.5987 55.7869 16.2953 55.3296 15.894L55.8476 14.83C56.3329 15.222 56.8323 15.5067 57.3456 15.684C57.8683 15.852 58.4516 15.936 59.0956 15.936C59.8329 15.936 60.4023 15.8007 60.8036 15.53C61.2049 15.25 61.4056 14.858 61.4056 14.354C61.4056 13.9247 61.2189 13.6073 60.8456 13.402C60.4723 13.1873 59.8749 12.9867 59.0536 12.8C58.2696 12.632 57.6256 12.4407 57.1216 12.226C56.6176 12.0113 56.2209 11.722 55.9316 11.358C55.6516 10.9847 55.5116 10.5133 55.5116 9.944C55.5116 9.36533 55.6609 8.85667 55.9596 8.418C56.2676 7.97933 56.7016 7.63867 57.2616 7.396C57.8216 7.144 58.4703 7.018 59.2076 7.018C59.8983 7.018 60.5469 7.12533 61.1536 7.34C61.7696 7.54533 62.2736 7.844 62.6656 8.236L62.1616 9.3C61.7043 8.92667 61.2329 8.65133 60.7476 8.474C60.2716 8.28733 59.7629 8.194 59.2216 8.194C58.5123 8.194 57.9523 8.34333 57.5416 8.642C57.1403 8.93133 56.9396 9.33733 56.9396 9.86C56.9396 10.308 57.1169 10.6487 57.4716 10.882C57.8263 11.106 58.3956 11.3113 59.1796 11.498C60.0009 11.6847 60.6636 11.8807 61.1676 12.086C61.6809 12.282 62.0869 12.5573 62.3856 12.912C62.6936 13.2573 62.8476 13.71 62.8476 14.27C62.8476 14.8393 62.6936 15.3387 62.3856 15.768C62.0869 16.1973 61.6529 16.5287 61.0836 16.762C60.5236 16.9953 59.8563 17.112 59.0816 17.112Z" fill="#00050B"/>
</svg>
